<svg width="40" height="40" viewBox="0 0 40 40" fill="none" xmlns="http://www.w3.org/2000/svg">
<rect width="40" height="40" rx="10" fill="#FFC400"/>
<path d="M30.6667 27.4667C30.6667 28.0325 30.442 28.5751 30.0419 28.9752C29.6418 29.3753 29.0992 29.6 28.5334 29.6H11.4667C10.9009 29.6 10.3583 29.3753 9.95824 28.9752C9.55817 28.5751 9.3334 28.0325 9.3334 27.4667V12.5334C9.3334 11.9676 9.55817 11.4249 9.95824 11.0249C10.3583 10.6248 10.9009 10.4 11.4667 10.4H16.8001L18.9334 13.6H28.5334C29.0992 13.6 29.6418 13.8248 30.0419 14.2249C30.442 14.6249 30.6667 15.1676 30.6667 15.7334V27.4667Z" fill="white"/>
</svg>
