<svg width="40" height="40" viewBox="0 0 40 40" fill="none" xmlns="http://www.w3.org/2000/svg">
<rect width="40" height="40" rx="10" fill="#C400FF"/>
<g clip-path="url(#clip0_45_69)">
<mask id="mask0_45_69" style="mask-type:alpha" maskUnits="userSpaceOnUse" x="8" y="8" width="31" height="31">
<rect x="8.20001" y="8.19995" width="30" height="30" fill="#D9D9D9"/>
</mask>
<g mask="url(#mask0_45_69)">
<path d="M17.3333 32C15.8667 32 14.6111 31.4778 13.5667 30.4333C12.5222 29.3889 12 28.1333 12 26.6667C12 25.2 12.5222 23.9444 13.5667 22.9C14.6111 21.8556 15.8667 21.3333 17.3333 21.3333C17.8444 21.3333 18.3167 21.3944 18.75 21.5167C19.1833 21.6389 19.6 21.8222 20 22.0667V9.33333C20 8.95556 20.1278 8.63889 20.3833 8.38333C20.6389 8.12778 20.9556 8 21.3333 8H26.6667C27.0444 8 27.3611 8.12778 27.6167 8.38333C27.8722 8.63889 28 8.95556 28 9.33333V12C28 12.3778 27.8722 12.6944 27.6167 12.95C27.3611 13.2056 27.0444 13.3333 26.6667 13.3333H22.6667V26.6667C22.6667 28.1333 22.1444 29.3889 21.1 30.4333C20.0556 31.4778 18.8 32 17.3333 32Z" fill="white"/>
</g>
</g>
<defs>
<clipPath id="clip0_45_69">
<rect width="25.6" height="25.6" fill="white" transform="translate(7.20001 7.19995)"/>
</clipPath>
</defs>
</svg>
