<svg width="40" height="40" viewBox="0 0 40 40" fill="none" xmlns="http://www.w3.org/2000/svg">
<rect width="40" height="40" rx="10" fill="#14AE5C"/>
<path d="M31.9993 25.9805V29.6006C32.0006 29.9367 31.9318 30.2693 31.7971 30.5773C31.6625 30.8852 31.465 31.1616 31.2174 31.3888C30.9698 31.616 30.6774 31.789 30.359 31.8966C30.0407 32.0043 29.7033 32.0443 29.3686 32.014C25.6554 31.6106 22.0885 30.3417 18.9547 28.3094C16.0391 26.4567 13.5671 23.9848 11.7144 21.0692C9.67503 17.9211 8.40589 14.3369 8.00979 10.6069C7.97964 10.2733 8.0193 9.93693 8.12624 9.6194C8.23319 9.30187 8.40508 9.01009 8.63097 8.76263C8.85686 8.51517 9.1318 8.31746 9.43829 8.18208C9.74478 8.04671 10.0761 7.97663 10.4112 7.97631H14.0313C14.6169 7.97055 15.1847 8.17793 15.6287 8.5598C16.0727 8.94167 16.3628 9.47197 16.4447 10.0519C16.5975 11.2104 16.8809 12.3479 17.2894 13.4427C17.4518 13.8746 17.4869 14.344 17.3907 14.7953C17.2944 15.2466 17.0708 15.6608 16.7464 15.9889L15.2139 17.5214C16.9317 20.5425 19.4331 23.0439 22.4542 24.7617L23.9867 23.2292C24.3148 22.9047 24.729 22.6811 25.1803 22.5849C25.6315 22.4887 26.1009 22.5238 26.5328 22.6861C27.6277 23.0947 28.7652 23.3781 29.9237 23.5309C30.5099 23.6135 31.0452 23.9088 31.4279 24.3605C31.8106 24.8121 32.0139 25.3887 31.9993 25.9805Z" fill="white"/>
</svg>
