<svg width="40" height="40" viewBox="0 0 40 40" fill="none" xmlns="http://www.w3.org/2000/svg">
<rect width="40" height="40" rx="10" fill="#222222"/>
<path fill-rule="evenodd" clip-rule="evenodd" d="M27.5051 23.958C27.4423 23.6119 27.4847 23.2551 27.6267 22.9333C27.7619 22.6178 27.9864 22.3488 28.2726 22.1593C28.5587 21.9697 28.8941 21.868 29.2373 21.8667H29.3333C29.8991 21.8667 30.4417 21.6419 30.8418 21.2418C31.2419 20.8418 31.4667 20.2991 31.4667 19.7333C31.4667 19.1675 31.2419 18.6249 30.8418 18.2248C30.4417 17.8248 29.8991 17.6 29.3333 17.6H29.152C28.8088 17.5986 28.4734 17.4969 28.1872 17.3074C27.9011 17.1179 27.6765 16.8488 27.5413 16.5333V16.448C27.3993 16.1263 27.357 15.7694 27.4197 15.4234C27.4825 15.0774 27.6474 14.7581 27.8933 14.5067L27.9573 14.4427C28.1557 14.2445 28.313 14.0093 28.4204 13.7503C28.5278 13.4913 28.583 13.2137 28.583 12.9333C28.583 12.653 28.5278 12.3754 28.4204 12.1164C28.313 11.8574 28.1557 11.6221 27.9573 11.424C27.7592 11.2257 27.5239 11.0683 27.2649 10.9609C27.006 10.8536 26.7284 10.7983 26.448 10.7983C26.1676 10.7983 25.89 10.8536 25.6311 10.9609C25.3721 11.0683 25.1368 11.2257 24.9387 11.424L24.8747 11.488C24.6233 11.7339 24.304 11.8989 23.958 11.9616C23.6119 12.0243 23.2551 11.982 22.9333 11.84C22.6178 11.7048 22.3488 11.4803 22.1593 11.1941C21.9697 10.9079 21.868 10.5726 21.8667 10.2293V10.1333C21.8667 9.56754 21.6419 9.02492 21.2418 8.62484C20.8418 8.22476 20.2991 8 19.7333 8C19.1675 8 18.6249 8.22476 18.2248 8.62484C17.8248 9.02492 17.6 9.56754 17.6 10.1333V10.3147C17.5986 10.6579 17.4969 10.9933 17.3074 11.2794C17.1179 11.5656 16.8488 11.7901 16.5333 11.9253H16.448C16.1263 12.0673 15.7694 12.1097 15.4234 12.0469C15.0774 11.9842 14.7581 11.8192 14.5067 11.5733L14.4427 11.5093C14.2445 11.311 14.0093 11.1536 13.7503 11.0463C13.4913 10.9389 13.2137 10.8837 12.9333 10.8837C12.653 10.8837 12.3754 10.9389 12.1164 11.0463C11.8574 11.1536 11.6221 11.311 11.424 11.5093C11.2257 11.7075 11.0683 11.9427 10.9609 12.2017C10.8536 12.4607 10.7983 12.7383 10.7983 13.0187C10.7983 13.299 10.8536 13.5766 10.9609 13.8356C11.0683 14.0946 11.2257 14.3299 11.424 14.528L11.488 14.592C11.7339 14.8434 11.8989 15.1627 11.9616 15.5087C12.0243 15.8547 11.982 16.2116 11.84 16.5333C11.7181 16.8648 11.4993 17.1519 11.2121 17.3573C10.9248 17.5628 10.5824 17.6771 10.2293 17.6853H10.1333C9.56754 17.6853 9.02492 17.9101 8.62484 18.3102C8.22476 18.7103 8 19.2529 8 19.8187C8 20.3845 8.22476 20.9271 8.62484 21.3272C9.02492 21.7272 9.56754 21.952 10.1333 21.952H10.3147C10.6579 21.9534 10.9933 22.0551 11.2794 22.2446C11.5656 22.4341 11.7901 22.7032 11.9253 23.0187C12.0673 23.3404 12.1097 23.6973 12.0469 24.0433C11.9842 24.3893 11.8192 24.7086 11.5733 24.96L11.5093 25.024C11.311 25.2221 11.1536 25.4574 11.0463 25.7164C10.9389 25.9754 10.8837 26.253 10.8837 26.5333C10.8837 26.8137 10.9389 27.0913 11.0463 27.3503C11.1536 27.6093 11.311 27.8445 11.5093 28.0427C11.7075 28.241 11.9427 28.3984 12.2017 28.5057C12.4607 28.6131 12.7383 28.6683 13.0187 28.6683C13.299 28.6683 13.5766 28.6131 13.8356 28.5057C14.0946 28.3984 14.3299 28.241 14.528 28.0427L14.592 27.9787C14.8434 27.7328 15.1627 27.5678 15.5087 27.5051C15.8547 27.4423 16.2116 27.4847 16.5333 27.6267C16.8648 27.7486 17.1519 27.9674 17.3573 28.2546C17.5628 28.5419 17.6771 28.8843 17.6853 29.2373V29.3333C17.6853 29.8991 17.9101 30.4417 18.3102 30.8418C18.7103 31.2419 19.2529 31.4667 19.8187 31.4667C20.3845 31.4667 20.9271 31.2419 21.3272 30.8418C21.7272 30.4417 21.952 29.8991 21.952 29.3333V29.152C21.9534 28.8088 22.0551 28.4734 22.2446 28.1872C22.4341 27.9011 22.7032 27.6765 23.0187 27.5413C23.3404 27.3993 23.6973 27.357 24.0433 27.4197C24.3893 27.4825 24.7086 27.6474 24.96 27.8933L25.024 27.9573C25.2221 28.1557 25.4574 28.313 25.7164 28.4204C25.9754 28.5278 26.253 28.583 26.5333 28.583C26.8137 28.583 27.0913 28.5278 27.3503 28.4204C27.6093 28.313 27.8445 28.1557 28.0427 27.9573C28.241 27.7592 28.3984 27.5239 28.5057 27.2649C28.6131 27.006 28.6683 26.7284 28.6683 26.448C28.6683 26.1676 28.6131 25.89 28.5057 25.6311C28.3984 25.3721 28.241 25.1368 28.0427 24.9387L27.9787 24.8747C27.7328 24.6233 27.5678 24.304 27.5051 23.958ZM19.7333 22.9333C21.5006 22.9333 22.9333 21.5006 22.9333 19.7333C22.9333 17.966 21.5006 16.5333 19.7333 16.5333C17.966 16.5333 16.5333 17.966 16.5333 19.7333C16.5333 21.5006 17.966 22.9333 19.7333 22.9333Z" fill="white"/>
</svg>
