<svg width="40" height="40" viewBox="0 0 40 40" fill="none" xmlns="http://www.w3.org/2000/svg">
<path d="M0 10C0 4.47715 4.47715 0 10 0H30C35.5228 0 40 4.47715 40 10V30C40 35.5228 35.5228 40 30 40H10C4.47715 40 0 35.5228 0 30V10Z" fill="white"/>
<mask id="mask0_58_13" style="mask-type:alpha" maskUnits="userSpaceOnUse" x="8" y="8" width="24" height="24">
<rect x="8" y="8" width="24" height="24" fill="#D9D9D9"/>
</mask>
<g mask="url(#mask0_58_13)">
<path d="M18.6 24C18.6 22.65 18.7208 21.6792 18.9625 21.0875C19.2042 20.4958 19.7167 19.85 20.5 19.15C21.1833 18.55 21.7042 18.0292 22.0625 17.5875C22.4208 17.1458 22.6 16.6417 22.6 16.075C22.6 15.3917 22.3708 14.825 21.9125 14.375C21.4542 13.925 20.8167 13.7 20 13.7C19.15 13.7 18.5042 13.9583 18.0625 14.475C17.6208 14.9917 17.3083 15.5167 17.125 16.05L14.55 14.95C14.9 13.8833 15.5417 12.9583 16.475 12.175C17.4083 11.3917 18.5833 11 20 11C21.75 11 23.0958 11.4875 24.0375 12.4625C24.9792 13.4375 25.45 14.6083 25.45 15.975C25.45 16.8083 25.2708 17.5208 24.9125 18.1125C24.5542 18.7042 23.9917 19.375 23.225 20.125C22.4083 20.9083 21.9125 21.5042 21.7375 21.9125C21.5625 22.3208 21.475 23.0167 21.475 24H18.6ZM20 30C19.45 30 18.9792 29.8042 18.5875 29.4125C18.1958 29.0208 18 28.55 18 28C18 27.45 18.1958 26.9792 18.5875 26.5875C18.9792 26.1958 19.45 26 20 26C20.55 26 21.0208 26.1958 21.4125 26.5875C21.8042 26.9792 22 27.45 22 28C22 28.55 21.8042 29.0208 21.4125 29.4125C21.0208 29.8042 20.55 30 20 30Z" fill="#1C1B1F"/>
</g>
</svg>
