<svg width="15" height="15" viewBox="0 0 15 15" fill="none" xmlns="http://www.w3.org/2000/svg">
<path d="M15 5V1C15 0.447715 14.5523 0 14 0H10C9.44772 0 9 0.447715 9 1V5C9 5.55228 9.44772 6 10 6H14C14.5523 6 15 5.55228 15 5Z" fill="black" fill-opacity="0.75"/>
<path d="M6 5V1C6 0.447715 5.55228 0 5 0H1C0.447716 0 0 0.447715 0 1V5C0 5.55228 0.447716 6 1 6H5C5.55228 6 6 5.55228 6 5Z" fill="black" fill-opacity="0.75"/>
<path d="M5 9H1C0.447716 9 0 9.44772 0 10V14C0 14.5523 0.447716 15 1 15H5C5.55228 15 6 14.5523 6 14V10C6 9.44772 5.55228 9 5 9Z" fill="black" fill-opacity="0.75"/>
<path d="M14 9H10C9.44772 9 9 9.44772 9 10V14C9 14.5523 9.44772 15 10 15H14C14.5523 15 15 14.5523 15 14V10C15 9.44772 14.5523 9 14 9Z" fill="black" fill-opacity="0.75"/>
</svg>
